<?xml version="1.0" encoding="UTF-8"?>
<svg id="a" data-name="Layer 1" xmlns="http://www.w3.org/2000/svg" xmlns:xlink="http://www.w3.org/1999/xlink" viewBox="0 0 481.89 650.21">
  <defs>
    <style>
      .u {
        stroke-dasharray: 0 0 0 1;
      }

      .u, .v, .w, .x, .y, .z, .aa, .ab, .ac {
        fill: none;
      }

      .u, .w, .x, .y, .z, .ab, .ac {
        stroke: #9d9fa2;
      }

      .u, .w, .x, .y, .ab, .ac {
        stroke-linecap: round;
        stroke-linejoin: round;
        stroke-width: .5px;
      }

      .v, .ad, .ae, .af, .ag {
        stroke-width: 0px;
      }

      .w {
        stroke-dasharray: 0 0 0 1;
      }

      .x {
        stroke-dasharray: 0 0 0 .99;
      }

      .ah {
        clip-path: url(#q);
      }

      .ai {
        clip-path: url(#n);
      }

      .aj {
        clip-path: url(#k);
      }

      .ak {
        clip-path: url(#l);
      }

      .al {
        clip-path: url(#p);
      }

      .am {
        clip-path: url(#r);
      }

      .an {
        clip-path: url(#o);
      }

      .ao {
        clip-path: url(#i);
      }

      .ap {
        clip-path: url(#h);
      }

      .aq {
        clip-path: url(#m);
      }

      .ar {
        clip-path: url(#j);
      }

      .as {
        clip-path: url(#g);
      }

      .at {
        clip-path: url(#e);
      }

      .au {
        clip-path: url(#s);
      }

      .av {
        clip-path: url(#t);
      }

      .aw {
        clip-path: url(#f);
      }

      .ax {
        clip-path: url(#d);
      }

      .ay {
        clip-path: url(#c);
      }

      .aa {
        stroke: #231f20;
      }

      .ad {
        fill: #626565;
      }

      .ae {
        fill: #231f20;
      }

      .af {
        fill: #fff;
      }

      .ag {
        fill: #e8e7e5;
      }

      .ab {
        stroke-dasharray: 0 0 0 .95;
      }

      .ac {
        stroke-dasharray: 0 0 0 1;
      }
    </style>
    <clipPath id="c">
      <rect class="v" x="0" y="0" width="481.89" height="650.21"/>
    </clipPath>
    <clipPath id="d">
      <rect class="v" x="0" y="0" width="481.89" height="650.21"/>
    </clipPath>
    <clipPath id="e">
      <rect class="v" x="0" y="0" width="481.89" height="650.21"/>
    </clipPath>
    <clipPath id="f">
      <rect class="v" x="0" y="0" width="481.89" height="650.21"/>
    </clipPath>
    <clipPath id="g">
      <rect class="v" x="0" y="0" width="481.89" height="650.21"/>
    </clipPath>
    <clipPath id="h">
      <rect class="v" x="0" y="0" width="481.89" height="650.21"/>
    </clipPath>
    <clipPath id="i">
      <rect class="v" x="0" y="0" width="481.89" height="650.21"/>
    </clipPath>
    <clipPath id="j">
      <rect class="v" x="0" y="0" width="481.89" height="650.21"/>
    </clipPath>
    <clipPath id="k">
      <rect class="v" x="0" y="0" width="481.89" height="650.21"/>
    </clipPath>
    <clipPath id="l">
      <rect class="v" x="0" y="0" width="481.89" height="650.21"/>
    </clipPath>
    <clipPath id="m">
      <rect class="v" x="0" y="0" width="481.89" height="650.21"/>
    </clipPath>
    <clipPath id="n">
      <rect class="v" x="0" y="0" width="481.89" height="650.21"/>
    </clipPath>
    <clipPath id="o">
      <rect class="v" x="0" y="0" width="481.89" height="650.21"/>
    </clipPath>
    <clipPath id="p">
      <rect class="v" x="0" y="0" width="481.89" height="650.21"/>
    </clipPath>
    <clipPath id="q">
      <rect class="v" x="0" y="0" width="481.89" height="650.21"/>
    </clipPath>
    <clipPath id="r">
      <rect class="v" x="0" y="0" width="481.89" height="650.21"/>
    </clipPath>
    <clipPath id="s">
      <rect class="v" x="0" y="0" width="481.89" height="650.21"/>
    </clipPath>
    <clipPath id="t">
      <rect class="v" x="0" y="0" width="481.89" height="650.21"/>
    </clipPath>
  </defs>
  <g id="b" data-name="Artwork 40">
    <g class="ay">
      <rect class="af" x="0" y="0" width="481.89" height="650.21"/>
      <g class="ax">
        <rect class="ag" x="306.17" y="97.48" width="88.29" height="233.23" rx="4.25" ry="4.25"/>
        <path class="af" d="m317.51,220.8h65.61c2.35,0,4.25,1.9,4.25,4.25v94.32c0,2.35-1.91,4.25-4.25,4.25h-65.61c-2.35,0-4.25-1.91-4.25-4.25v-94.32c0-2.35,1.91-4.25,4.25-4.25Z"/>
        <path class="aa" d="m331.75,312.48v7.35c0,2.35,1.9,4.25,4.25,4.25h28.62c2.35,0,4.25-1.9,4.25-4.25v-7.35"/>
        <path class="ab" d="m105.56,334.24c.4,1.74,1.86,3.08,3.67,3.28"/>
        <line class="w" x1="110.71" y1="337.55" x2="272.16" y2="337.55"/>
        <path class="ab" d="m273.61,337.44c1.74-.4,3.08-1.86,3.28-3.67"/>
        <line class="u" x1="276.91" y1="332.29" x2="276.91" y2="95.4"/>
        <path class="ab" d="m276.81,93.95c-.4-1.74-1.86-3.08-3.67-3.28"/>
        <line class="w" x1="271.66" y1="90.64" x2="110.21" y2="90.64"/>
        <path class="ab" d="m108.76,90.75c-1.74.4-3.08,1.86-3.28,3.67"/>
        <line class="u" x1="105.46" y1="95.9" x2="105.46" y2="332.79"/>
        <path class="y" d="m105.46,333.29h0m0-238.4h0m4.25-4.25h0m162.95,0h0m4.25,4.25h0m0,238.4h0m-4.25,4.25h0m-162.95,0h0"/>
      </g>
      <g>
        <path class="ae" d="m41.22,287.7c-.35,0-.64-.29-.64-.63s.29-.64.64-.64.64.29.64.64-.29.63-.64.63Z"/>
        <path class="ae" d="m46,287.7c-.35,0-.64-.29-.64-.63s.29-.64.64-.64.64.29.64.64-.29.63-.64.63Z"/>
        <path class="ae" d="m50.76,287.7c-.35,0-.64-.29-.64-.63s.29-.64.64-.64.64.29.64.64-.29.63-.64.63Z"/>
      </g>
      <g class="at">
        <path class="ab" d="m9.04,320.32c.4,1.74,1.86,3.08,3.67,3.28"/>
        <line class="x" x1="14.18" y1="323.62" x2="78.29" y2="323.62"/>
        <path class="ab" d="m79.74,323.52c1.74-.4,3.08-1.86,3.28-3.67"/>
        <line class="ac" x1="83.04" y1="318.37" x2="83.04" y2="225.56"/>
        <path class="ab" d="m82.94,224.11c-.4-1.74-1.86-3.08-3.67-3.28"/>
        <line class="x" x1="77.8" y1="220.8" x2="13.68" y2="220.8"/>
        <path class="ab" d="m12.24,220.91c-1.74.4-3.08,1.86-3.28,3.67"/>
        <line class="ac" x1="8.93" y1="226.06" x2="8.93" y2="318.87"/>
        <path class="y" d="m8.93,319.37h0m0-94.32h0m4.25-4.25h0m65.61,0h0m4.25,4.25h0m0,94.32h0m-4.25,4.25h0m-65.61,0h0"/>
      </g>
      <g>
        <path class="ae" d="m32.52,236.2c-.64,0-1.14-.17-1.52-.5s-.57-.8-.57-1.38h.81c0,.37.12.65.35.86s.54.31.93.31.67-.11.89-.32c.22-.22.33-.5.33-.85,0-.26-.07-.49-.21-.69s-.34-.33-.61-.4l-1-.28c-.41-.12-.74-.33-.98-.64-.24-.31-.36-.67-.36-1.09,0-.35.08-.65.23-.92s.38-.47.66-.62c.28-.15.61-.22.97-.22s.7.07.99.22c.28.15.51.35.67.61s.24.56.24.91h-.81c0-.3-.1-.54-.31-.73-.2-.19-.47-.28-.78-.28s-.58.09-.77.28c-.2.19-.3.43-.3.73,0,.24.06.45.19.62.13.17.31.29.54.36l1.03.29c.44.12.78.35,1.02.68.24.33.36.73.36,1.18,0,.58-.18,1.03-.55,1.38-.37.34-.85.51-1.47.51Z"/>
        <path class="ae" d="m35.95,236.11v-.74h1.75v-3.47h-1.58v-.74h2.39v4.21h1.67v.74h-4.23Zm2.07-5.84c-.2,0-.35-.05-.47-.15-.11-.1-.17-.24-.17-.41s.06-.32.17-.43c.11-.1.27-.16.47-.16s.35.05.47.16c.11.1.17.25.17.43s-.06.31-.17.41c-.11.1-.27.15-.47.15Z"/>
        <path class="ae" d="m41.13,236.11v-4.95h.7v.66h.02c.03-.22.12-.4.27-.54.15-.14.33-.21.56-.21.22,0,.4.06.55.19.15.13.26.3.32.51h0c.04-.22.14-.39.28-.51s.33-.19.56-.19c.32,0,.57.12.76.36.19.24.28.54.28.92v3.76h-.76v-3.77c0-.2-.05-.36-.14-.47-.1-.12-.23-.17-.4-.17s-.29.06-.39.17c-.1.12-.14.27-.14.47v3.78h-.67v-3.77c0-.2-.05-.36-.14-.47-.1-.12-.23-.17-.39-.17s-.3.06-.4.17c-.1.12-.14.27-.14.47v3.78h-.76Z"/>
        <path class="ae" d="m46.81,237.73v-6.57h.81v.95h0c.04-.32.18-.58.42-.76.24-.18.55-.27.92-.27.5,0,.89.16,1.19.49s.44.78.44,1.35v1.45c0,.57-.15,1.02-.44,1.35s-.69.49-1.19.49c-.37,0-.68-.09-.92-.28-.24-.19-.38-.44-.42-.76h-.03l.02,1.12v1.44h-.81Zm1.89-2.23c.34,0,.61-.09.8-.27.19-.18.29-.47.29-.87v-1.44c0-.41-.1-.7-.29-.88-.19-.18-.46-.27-.8-.27s-.59.11-.79.32c-.2.21-.29.5-.29.87v1.35c0,.37.1.66.29.87.19.21.46.31.79.31Z"/>
        <path class="ae" d="m54.81,236.11c-.44,0-.79-.13-1.05-.38-.26-.25-.39-.59-.39-1.01v-4.44h-1.71v-.74h2.52v5.17c0,.2.06.37.17.48.11.12.27.18.46.18h1.53v.74h-1.53Z"/>
        <path class="ae" d="m59.49,236.2c-.58,0-1.05-.17-1.41-.53-.36-.35-.54-.84-.54-1.45v-1.17c0-.62.18-1.1.54-1.45.36-.35.83-.53,1.41-.53.39,0,.73.08,1.02.23.29.16.52.38.68.66s.24.62.24,1v.88h-3.1v.47c0,.37.1.65.31.87.21.21.49.32.84.32.3,0,.55-.06.74-.18s.31-.27.36-.47h.81c-.05.41-.25.74-.6.99-.35.24-.78.36-1.3.36Zm-1.15-2.99h2.3v-.25c0-.39-.1-.69-.3-.91-.2-.21-.48-.32-.85-.32s-.65.11-.85.32c-.2.21-.3.52-.3.91v.25Z"/>
      </g>
      <g>
        <path class="ae" d="m24.67,247c-.37,0-.68-.09-.92-.28-.24-.18-.38-.44-.42-.76h0v.95h-.81v-6.57h.81v1.44l-.02,1.12h0c.05-.32.19-.57.44-.76s.55-.28.92-.28c.5,0,.89.17,1.19.5s.44.78.44,1.35v1.45c0,.56-.15,1.01-.44,1.34-.29.33-.69.5-1.19.5Zm-.27-.7c.34,0,.61-.09.8-.27s.29-.47.29-.87v-1.44c0-.41-.1-.7-.29-.88-.19-.18-.46-.27-.8-.27s-.59.1-.79.31c-.2.21-.29.5-.29.87v1.35c0,.37.1.66.29.87.19.21.46.32.79.32Z"/>
        <path class="ae" d="m29.79,247c-.58,0-1.05-.18-1.41-.53-.36-.35-.54-.83-.54-1.45v-1.17c0-.62.18-1.1.54-1.45.36-.35.83-.53,1.41-.53.39,0,.73.08,1.02.23.29.16.52.38.68.66s.24.62.24,1v.88h-3.1v.47c0,.37.1.66.31.87s.49.32.84.32c.3,0,.55-.06.74-.18.19-.12.31-.27.36-.47h.81c-.05.41-.25.74-.6.98-.35.24-.78.37-1.3.37Zm-1.15-2.99h2.3v-.25c0-.39-.1-.69-.3-.9-.2-.21-.48-.32-.85-.32s-.65.11-.85.32c-.2.21-.3.51-.3.9v.25Z"/>
        <path class="ae" d="m33.31,246.91v-6.57h.81v2.56h0c.04-.33.18-.58.4-.76s.53-.27.91-.27c.5,0,.89.15,1.19.46.29.31.44.72.44,1.25v3.33h-.81v-3.2c0-.37-.09-.66-.28-.86s-.45-.3-.77-.3-.6.1-.8.32c-.2.21-.29.51-.29.89v3.15h-.81Z"/>
        <path class="ae" d="m40.15,247c-.51,0-.92-.14-1.21-.43-.3-.29-.45-.66-.45-1.12,0-.31.07-.57.21-.8.14-.23.33-.41.58-.54.25-.13.53-.19.85-.19h1.53v-.39c0-.64-.35-.96-1.05-.96-.31,0-.56.06-.76.17-.19.12-.29.27-.31.48h-.81c.03-.39.21-.71.54-.97.33-.25.78-.38,1.33-.38.6,0,1.06.14,1.38.43.32.29.48.69.48,1.21v3.4h-.8v-.9h-.02c-.05.31-.2.55-.46.72-.26.18-.6.27-1.03.27Zm.2-.68c.4,0,.71-.1.95-.29.23-.19.35-.45.35-.78v-.69h-1.44c-.26,0-.48.08-.64.24-.17.16-.25.37-.25.63s.09.49.27.65.44.24.76.24Z"/>
        <path class="ae" d="m45.46,246.91l-1.68-4.95h.87l1.08,3.33c.07.2.12.39.17.57s.08.33.11.43c.03-.1.07-.24.11-.43.04-.18.09-.37.15-.57l1.08-3.33h.85l-1.68,4.95h-1.06Z"/>
        <path class="ae" d="m49.45,246.91v-.74h1.75v-3.47h-1.58v-.74h2.39v4.21h1.67v.74h-4.23Zm2.07-5.84c-.2,0-.35-.05-.47-.15-.11-.1-.17-.24-.17-.41s.06-.32.17-.43c.11-.11.27-.16.47-.16s.35.05.47.16c.11.11.17.25.17.43s-.06.31-.17.41c-.11.1-.27.15-.47.15Z"/>
        <path class="ae" d="m56.79,246.98c-.59,0-1.07-.17-1.42-.52-.35-.35-.53-.83-.53-1.46v-1.13c0-.63.17-1.12.52-1.46.35-.34.82-.52,1.42-.52s1.07.17,1.42.52c.35.34.52.83.52,1.46v1.13c0,.62-.18,1.11-.53,1.46-.35.35-.82.52-1.42.52Zm0-.72c.35,0,.63-.1.83-.3.2-.2.3-.49.3-.87v-1.31c0-.38-.1-.67-.3-.87-.2-.2-.48-.3-.83-.3s-.62.1-.83.3c-.2.2-.31.49-.31.87v1.31c0,.38.1.67.31.87.2.2.48.3.83.3Z"/>
        <path class="ae" d="m60.49,246.91v-4.95h.81v.95h.02c.04-.32.18-.57.41-.76.23-.19.53-.28.92-.28.52,0,.91.16,1.19.46.28.31.42.75.42,1.32v.42h-.81v-.42c0-.72-.35-1.08-1.05-1.08-.35,0-.62.1-.81.3-.19.21-.28.5-.28.88v3.15h-.81Z"/>
        <path class="ae" d="m67.39,246.98c-.55,0-.98-.12-1.28-.37-.3-.25-.45-.6-.45-1.06h.81c0,.23.08.41.24.54s.39.19.68.19h.4c.3,0,.53-.07.7-.2.16-.13.25-.32.25-.56,0-.43-.19-.67-.58-.72l-1.37-.2c-.34-.05-.6-.19-.78-.42-.19-.23-.28-.54-.28-.91,0-.43.15-.77.45-1.02s.71-.37,1.23-.37h.4c.48,0,.87.12,1.17.36.3.24.47.55.49.93h-.82c-.01-.17-.09-.32-.25-.43-.15-.11-.35-.17-.6-.17h-.4c-.28,0-.49.06-.65.19-.16.13-.23.3-.23.51,0,.35.16.55.48.59l1.28.18c.84.12,1.26.61,1.26,1.48,0,.46-.15.82-.45,1.08-.3.25-.73.38-1.28.38h-.4Z"/>
      </g>
      <g class="aw">
        <rect class="z" x="11.35" y="7.59" width="461.35" height="27.26" rx="4.25" ry="4.25"/>
      </g>
      <g>
        <path class="ae" d="m216.61,25.61v-8.76h5.04v.98h-3.97v2.71h3.55v.96h-3.55v3.12h3.97v.98h-5.04Z"/>
        <path class="ae" d="m223.71,25.61v-6.6h1.08v1.26h.01c.06-.44.24-.78.54-1.02s.71-.36,1.21-.36c.66,0,1.19.2,1.58.61.39.41.59.96.59,1.67v4.44h-1.08v-4.25c0-.5-.13-.89-.38-1.16s-.59-.4-1.03-.4-.8.14-1.06.42c-.26.28-.39.68-.39,1.19v4.2h-1.08Z"/>
        <path class="ae" d="m234.07,25.61c-.54,0-.98-.16-1.31-.47-.33-.32-.49-.74-.49-1.27v-3.88h-1.9v-.98h1.9v-1.86h1.08v1.86h2.7v.98h-2.7v3.88c0,.22.07.41.2.55.13.14.31.21.52.21h1.92v.98h-1.92Z"/>
        <path class="ae" d="m238.03,25.61v-.98h2.34v-4.63h-2.1v-.98h3.18v5.62h2.22v.98h-5.64Zm2.76-7.79c-.26,0-.47-.07-.62-.21-.15-.13-.23-.32-.23-.55s.08-.43.23-.57c.15-.14.36-.21.62-.21s.47.07.62.21c.15.14.23.33.23.57s-.08.42-.23.55c-.15.14-.36.21-.62.21Z"/>
        <path class="ae" d="m248.47,25.61c-.54,0-.98-.16-1.31-.47-.33-.32-.49-.74-.49-1.27v-3.88h-1.9v-.98h1.9v-1.86h1.08v1.86h2.7v.98h-2.7v3.88c0,.22.07.41.2.55.13.14.31.21.52.21h1.92v.98h-1.92Z"/>
        <path class="ae" d="m253.54,27.77l.97-2.57-2.46-6.19h1.16l1.56,4.08c.06.16.12.33.18.5.06.18.1.33.12.46.02-.13.06-.28.12-.46.06-.18.11-.34.17-.5l1.45-4.08h1.14l-3.29,8.76h-1.13Z"/>
        <path class="ae" d="m270.87,27.77l-1.24-2.05s-.07,0-.11,0c-.04,0-.08,0-.12,0-.81,0-1.45-.23-1.93-.7-.48-.47-.71-1.09-.71-1.88v-3.84c0-.79.24-1.41.71-1.88.48-.47,1.12-.7,1.93-.7s1.45.23,1.93.7c.48.47.71,1.09.71,1.88v3.84c0,.54-.12,1-.35,1.4-.23.4-.56.7-.98.9l1.4,2.32h-1.25Zm-1.46-3c.47,0,.85-.15,1.13-.44.28-.3.43-.69.43-1.18v-3.84c0-.5-.14-.89-.43-1.18s-.66-.44-1.13-.44-.85.15-1.13.44c-.28.29-.43.69-.43,1.18v3.84c0,.49.14.88.43,1.18.28.3.66.44,1.13.44Z"/>
      </g>
      <g class="as">
        <rect class="z" x="9.18" y="393.79" width="461.35" height="27.26" rx="4.25" ry="4.25"/>
      </g>
      <g>
        <path class="ae" d="m224.9,411.81v-8.76h1.6l1.12,3.79,1.16-3.79h1.6v8.76h-1.04v-4.14c0-.39,0-.84.02-1.35.01-.51.03-1.02.05-1.54.02-.52.05-.99.08-1.4l-1.42,4.52h-.94l-1.36-4.42c.06.59.11,1.24.13,1.94.02.7.04,1.45.04,2.24v4.14h-1.04Z"/>
        <path class="ae" d="m234.83,411.93c-.78,0-1.4-.23-1.88-.7-.48-.47-.71-1.11-.71-1.94v-1.56c0-.82.24-1.47.71-1.94.48-.47,1.1-.7,1.88-.7.52,0,.97.1,1.36.31s.69.5.91.88c.22.38.32.82.32,1.33v1.18h-4.13v.62c0,.49.14.87.42,1.16.28.28.65.43,1.12.43.4,0,.73-.08.99-.23.26-.16.42-.37.47-.63h1.08c-.07.55-.34.99-.8,1.31s-1.04.49-1.74.49Zm-1.54-3.98h3.07v-.34c0-.52-.13-.92-.4-1.21-.27-.29-.65-.43-1.13-.43s-.87.14-1.13.43c-.27.28-.4.69-.4,1.21v.34Z"/>
        <path class="ae" d="m239.78,411.81v-6.6h1.08v1.26h.02c.06-.42.24-.76.54-1.01.3-.25.71-.37,1.22-.37.69,0,1.22.21,1.59.62.37.41.56,1,.56,1.76v.56h-1.08v-.56c0-.96-.47-1.44-1.4-1.44-.47,0-.83.14-1.08.41s-.37.66-.37,1.18v4.2h-1.08Z"/>
        <path class="ae" d="m247.56,413.97v-.98h1.86c.38,0,.67-.11.89-.32.22-.21.32-.5.32-.86v-.6l.02-1.08h-.04c-.06.39-.25.7-.56.91-.31.21-.7.32-1.18.32-.68,0-1.22-.22-1.61-.65-.39-.43-.59-1.02-.59-1.78v-1.39c0-.75.2-1.35.59-1.79.39-.44.93-.66,1.61-.66.47,0,.86.11,1.18.34.31.22.5.53.56.92h.02v-1.14h1.07v6.6c0,.66-.21,1.19-.62,1.58s-.97.58-1.69.58h-1.85Zm1.64-3.52c.45,0,.8-.14,1.06-.42.26-.28.38-.67.38-1.16v-1.26c0-.5-.13-.88-.38-1.16-.26-.28-.61-.42-1.06-.42s-.81.13-1.06.4-.38.62-.38,1.07v1.5c0,.45.13.8.38,1.07s.61.4,1.06.4Z"/>
        <path class="ae" d="m256.43,411.93c-.78,0-1.4-.23-1.88-.7-.48-.47-.71-1.11-.71-1.94v-1.56c0-.82.24-1.47.71-1.94.48-.47,1.1-.7,1.88-.7.52,0,.97.1,1.36.31s.69.5.91.88c.22.38.32.82.32,1.33v1.18h-4.13v.62c0,.49.14.87.42,1.16.28.28.65.43,1.12.43.4,0,.73-.08.99-.23.26-.16.42-.37.47-.63h1.08c-.07.55-.34.99-.8,1.31s-1.04.49-1.74.49Zm-1.54-3.98h3.07v-.34c0-.52-.13-.92-.4-1.21-.27-.29-.65-.43-1.13-.43s-.87.14-1.13.43c-.27.28-.4.69-.4,1.21v.34Z"/>
      </g>
      <g>
        <path class="ae" d="m205.35,214.97c-.35,0-.64-.29-.64-.63s.29-.64.64-.64.64.29.64.64-.29.63-.64.63Z"/>
        <path class="ae" d="m210.11,214.97c-.35,0-.64-.29-.64-.63s.29-.64.64-.64.64.29.64.64-.29.63-.64.63Z"/>
        <path class="ae" d="m214.89,214.97c-.35,0-.64-.29-.64-.63s.29-.64.64-.64.64.29.64.64-.29.63-.64.63Z"/>
      </g>
      <g>
        <path class="ae" d="m399.22,214.97c-.35,0-.64-.29-.64-.63s.29-.64.64-.64.64.29.64.64-.29.63-.64.63Z"/>
        <path class="ae" d="m403.99,214.97c-.35,0-.64-.29-.64-.63s.29-.64.64-.64.64.29.64.64-.29.63-.64.63Z"/>
        <path class="ae" d="m408.76,214.97c-.35,0-.64-.29-.64-.63s.29-.64.64-.64.64.29.64.64-.29.63-.64.63Z"/>
      </g>
      <g class="ap">
        <path class="ab" d="m299.44,334.24c.4,1.74,1.86,3.08,3.67,3.28"/>
        <line class="w" x1="304.58" y1="337.55" x2="466.03" y2="337.55"/>
        <path class="ab" d="m467.48,337.44c1.74-.4,3.08-1.86,3.28-3.67"/>
        <line class="u" x1="470.78" y1="332.29" x2="470.78" y2="95.4"/>
        <path class="ab" d="m470.68,93.95c-.4-1.74-1.86-3.08-3.67-3.28"/>
        <line class="w" x1="465.53" y1="90.64" x2="304.08" y2="90.64"/>
        <path class="ab" d="m302.64,90.75c-1.74.4-3.08,1.86-3.28,3.67"/>
        <line class="u" x1="299.33" y1="95.9" x2="299.33" y2="332.79"/>
        <path class="y" d="m299.33,333.29h0m0-238.4h0m4.25-4.25h0m162.95,0h0m4.25,4.25h0m0,238.4h0m-4.25,4.25h0m-162.95,0h0"/>
        <rect class="ag" x="112.3" y="97.48" width="88.29" height="233.23" rx="4.25" ry="4.25"/>
        <rect class="af" x="119.63" y="104.57" width="51.74" height="25.35" rx="4.25" ry="4.25"/>
        <path class="af" d="m123.63,220.8h65.61c2.35,0,4.25,1.9,4.25,4.25v94.32c0,2.35-1.91,4.25-4.25,4.25h-65.61c-2.35,0-4.25-1.91-4.25-4.25v-94.32c0-2.35,1.91-4.25,4.25-4.25Z"/>
        <rect class="af" x="119.63" y="162.81" width="73.61" height="25.35" rx="4.25" ry="4.25"/>
      </g>
      <g>
        <path class="ae" d="m126.18,179.37l-1.69-6.57h.83l1.12,4.47c.08.31.14.6.19.86.05.26.09.46.11.6.02-.14.06-.34.12-.61.06-.27.12-.56.2-.87l1.08-4.46h.84l-1.7,6.57h-1.11Z"/>
        <path class="ae" d="m130.2,179.37v-.74h1.75v-3.47h-1.58v-.74h2.39v4.21h1.67v.74h-4.23Zm2.07-5.84c-.2,0-.35-.05-.47-.15-.11-.1-.17-.24-.17-.41s.06-.32.17-.43c.11-.11.27-.16.47-.16s.35.05.47.16c.11.11.17.25.17.43s-.06.31-.17.41c-.11.1-.27.15-.47.15Z"/>
        <path class="ae" d="m137.34,179.44c-.55,0-.98-.12-1.28-.37-.3-.25-.45-.6-.45-1.06h.81c0,.23.08.41.24.54s.39.19.68.19h.4c.3,0,.53-.07.7-.2.16-.13.25-.32.25-.56,0-.43-.19-.67-.58-.72l-1.37-.2c-.34-.05-.6-.19-.78-.42-.19-.23-.28-.54-.28-.91,0-.43.15-.77.45-1.02s.71-.37,1.23-.37h.4c.48,0,.87.12,1.17.36.3.24.47.55.49.93h-.82c-.01-.17-.09-.32-.25-.43-.15-.11-.35-.17-.6-.17h-.4c-.28,0-.49.06-.65.19-.16.13-.23.3-.23.51,0,.35.16.55.48.59l1.28.18c.84.12,1.26.61,1.26,1.48,0,.46-.15.82-.45,1.08-.3.25-.73.38-1.28.38h-.4Z"/>
        <path class="ae" d="m141,179.37v-.74h1.75v-3.47h-1.58v-.74h2.39v4.21h1.67v.74h-4.23Zm2.07-5.84c-.2,0-.35-.05-.47-.15-.11-.1-.17-.24-.17-.41s.06-.32.17-.43c.11-.11.27-.16.47-.16s.35.05.47.16c.11.11.17.25.17.43s-.06.31-.17.41c-.11.1-.27.15-.47.15Z"/>
        <path class="ae" d="m148.63,179.46c-.37,0-.68-.09-.92-.28-.24-.18-.38-.44-.42-.76h0v.95h-.81v-6.57h.81v1.44l-.02,1.12h0c.05-.32.19-.57.44-.76s.55-.28.92-.28c.5,0,.89.17,1.19.5s.44.78.44,1.35v1.45c0,.56-.15,1.01-.44,1.34-.29.33-.69.5-1.19.5Zm-.27-.7c.34,0,.61-.09.8-.27s.29-.47.29-.87v-1.44c0-.41-.1-.7-.29-.88-.19-.18-.46-.27-.8-.27s-.59.1-.79.31c-.2.21-.29.5-.29.87v1.35c0,.37.1.66.29.87.19.21.46.32.79.32Z"/>
        <path class="ae" d="m151.8,179.37v-.74h1.75v-3.47h-1.58v-.74h2.39v4.21h1.67v.74h-4.23Zm2.07-5.84c-.2,0-.35-.05-.47-.15-.11-.1-.17-.24-.17-.41s.06-.32.17-.43c.11-.11.27-.16.47-.16s.35.05.47.16c.11.11.17.25.17.43s-.06.31-.17.41c-.11.1-.27.15-.47.15Z"/>
        <path class="ae" d="m159.86,179.37c-.44,0-.79-.13-1.05-.38-.26-.26-.39-.59-.39-1.01v-4.44h-1.71v-.74h2.52v5.17c0,.2.06.36.17.48s.27.18.46.18h1.53v.74h-1.53Z"/>
        <path class="ae" d="m162.6,179.37v-.74h1.75v-3.47h-1.58v-.74h2.39v4.21h1.67v.74h-4.23Zm2.07-5.84c-.2,0-.35-.05-.47-.15-.11-.1-.17-.24-.17-.41s.06-.32.17-.43c.11-.11.27-.16.47-.16s.35.05.47.16c.11.11.17.25.17.43s-.06.31-.17.41c-.11.1-.27.15-.47.15Z"/>
        <path class="ae" d="m170.43,179.37c-.41,0-.73-.12-.98-.36-.25-.24-.37-.55-.37-.95v-2.91h-1.42v-.74h1.42v-1.39h.81v1.39h2.03v.74h-2.03v2.91c0,.17.05.3.15.41.1.11.23.16.39.16h1.44v.74h-1.44Z"/>
        <path class="ae" d="m174.24,180.99l.73-1.93-1.85-4.64h.87l1.17,3.06c.05.12.09.25.14.38s.07.25.09.34c.02-.1.05-.21.09-.34.04-.13.08-.26.13-.38l1.09-3.06h.85l-2.47,6.57h-.85Z"/>
        <path class="ae" d="m187.23,180.99l-.93-1.54s-.05,0-.08,0c-.03,0-.06,0-.09,0-.61,0-1.09-.18-1.44-.53-.36-.35-.54-.82-.54-1.41v-2.88c0-.59.18-1.06.54-1.41s.84-.53,1.44-.53,1.09.18,1.44.53.54.82.54,1.41v2.88c0,.4-.09.75-.26,1.05-.17.3-.42.53-.74.68l1.05,1.74h-.94Zm-1.1-2.25c.35,0,.64-.11.85-.33.21-.22.32-.52.32-.88v-2.88c0-.37-.11-.67-.32-.89-.21-.22-.5-.33-.85-.33s-.64.11-.85.33c-.21.22-.32.51-.32.89v2.88c0,.37.11.66.32.88.21.22.5.33.85.33Z"/>
      </g>
      <g>
        <path class="ae" d="m124.79,121.13v-6.57h3.78v.74h-2.98v2.04h2.66v.72h-2.66v2.34h2.98v.74h-3.78Z"/>
        <path class="ae" d="m130.12,121.13v-4.95h.81v.95h0c.04-.33.18-.59.4-.77s.53-.27.91-.27c.5,0,.89.15,1.19.46.29.31.44.72.44,1.25v3.33h-.81v-3.19c0-.38-.09-.67-.28-.87-.19-.2-.45-.3-.77-.3s-.6.11-.8.31c-.2.21-.29.51-.29.89v3.15h-.81Z"/>
        <path class="ae" d="m137.89,121.13c-.41,0-.73-.12-.98-.36-.25-.24-.37-.55-.37-.95v-2.91h-1.42v-.74h1.42v-1.4h.81v1.4h2.03v.74h-2.03v2.91c0,.17.05.3.15.41.1.1.23.16.39.16h1.44v.74h-1.44Z"/>
        <path class="ae" d="m140.86,121.13v-.74h1.75v-3.47h-1.58v-.74h2.39v4.21h1.67v.74h-4.23Zm2.07-5.84c-.2,0-.35-.05-.47-.15-.11-.1-.17-.24-.17-.41s.06-.32.17-.43c.11-.1.27-.16.47-.16s.35.05.47.16c.11.1.17.25.17.43s-.06.31-.17.41c-.11.1-.27.15-.47.15Z"/>
        <path class="ae" d="m148.69,121.13c-.41,0-.73-.12-.98-.36-.25-.24-.37-.55-.37-.95v-2.91h-1.42v-.74h1.42v-1.4h.81v1.4h2.03v.74h-2.03v2.91c0,.17.05.3.15.41.1.1.23.16.39.16h1.44v.74h-1.44Z"/>
        <path class="ae" d="m152.5,122.75l.73-1.93-1.85-4.64h.87l1.17,3.06c.05.12.09.25.14.38.04.13.07.25.09.34.02-.1.05-.21.09-.34.04-.13.08-.26.13-.38l1.09-3.06h.85l-2.47,6.57h-.85Z"/>
        <path class="ae" d="m165.49,122.75l-.93-1.54s-.05,0-.08,0c-.03,0-.06,0-.09,0-.61,0-1.09-.17-1.44-.53-.36-.35-.54-.82-.54-1.41v-2.88c0-.59.18-1.06.54-1.41.36-.35.84-.53,1.44-.53s1.09.18,1.44.53c.36.35.54.82.54,1.41v2.88c0,.4-.09.75-.26,1.05-.17.3-.42.52-.74.67l1.05,1.74h-.94Zm-1.1-2.25c.35,0,.64-.11.85-.33.21-.22.32-.52.32-.88v-2.88c0-.37-.11-.67-.32-.89s-.5-.33-.85-.33-.64.11-.85.33c-.21.22-.32.51-.32.89v2.88c0,.37.11.66.32.88.21.22.5.33.85.33Z"/>
      </g>
      <line class="aa" x1="145.5" y1="136.09" x2="145.5" y2="155.91"/>
      <polyline class="aa" points="149.22 151.9 145.5 155.91 141.77 151.9"/>
      <line class="aa" x1="156.44" y1="194.33" x2="156.44" y2="214.15"/>
      <polyline class="aa" points="160.16 210.15 156.44 214.15 152.71 210.15"/>
      <g>
        <path class="ae" d="m151.68,287.7c-.35,0-.64-.29-.64-.63s.29-.64.64-.64.64.29.64.64-.29.63-.64.63Z"/>
        <path class="ae" d="m156.44,287.7c-.35,0-.64-.29-.64-.63s.29-.64.64-.64.64.29.64.64-.29.63-.64.63Z"/>
        <path class="ae" d="m161.22,287.7c-.35,0-.64-.29-.64-.63s.29-.64.64-.64.64.29.64.64-.29.63-.64.63Z"/>
      </g>
      <g>
        <path class="ae" d="m135.65,236.11v-6.57h1.08l2.01,5.62c-.01-.15-.03-.33-.04-.55s-.03-.45-.04-.69c0-.24-.01-.47-.01-.69v-3.69h.78v6.57h-1.08l-2-5.62c.01.14.02.33.04.54.01.22.02.45.03.69,0,.24.01.47.01.7v3.69h-.78Z"/>
        <path class="ae" d="m142.94,236.2c-.58,0-1.05-.17-1.41-.53-.36-.35-.54-.84-.54-1.45v-1.17c0-.62.18-1.1.54-1.45.36-.35.83-.53,1.41-.53.39,0,.73.08,1.02.23.29.16.52.38.68.66s.24.62.24,1v.88h-3.1v.47c0,.37.1.65.31.87.21.21.49.32.84.32.3,0,.55-.06.74-.18s.31-.27.36-.47h.81c-.05.41-.25.74-.6.99-.35.24-.78.36-1.3.36Zm-1.15-2.99h2.3v-.25c0-.39-.1-.69-.3-.91-.2-.21-.48-.32-.85-.32s-.65.11-.85.32c-.2.21-.3.52-.3.91v.25Z"/>
        <path class="ae" d="m146.4,236.11v-.74h1.75v-3.47h-1.58v-.74h2.39v4.21h1.67v.74h-4.23Zm2.07-5.84c-.2,0-.35-.05-.47-.15-.11-.1-.17-.24-.17-.41s.06-.32.17-.43c.11-.1.27-.16.47-.16s.35.05.47.16c.11.1.17.25.17.43s-.06.31-.17.41c-.11.1-.27.15-.47.15Z"/>
        <path class="ae" d="m152.49,237.73v-.74h1.4c.28,0,.5-.08.67-.24.16-.16.24-.37.24-.64v-.45l.02-.81h-.03c-.05.29-.19.52-.42.68-.23.16-.53.24-.88.24-.51,0-.91-.16-1.21-.49-.29-.32-.44-.77-.44-1.33v-1.04c0-.56.15-1.01.44-1.34s.7-.49,1.21-.49c.35,0,.65.08.88.25.23.17.38.4.42.69h.02v-.85h.8v4.95c0,.5-.15.89-.46,1.18s-.73.44-1.26.44h-1.39Zm1.23-2.64c.34,0,.6-.1.79-.32.19-.21.29-.5.29-.87v-.94c0-.37-.1-.66-.29-.87-.19-.21-.46-.32-.79-.32s-.61.1-.8.3c-.19.2-.28.46-.28.8v1.12c0,.34.09.6.28.8.19.2.45.3.8.3Z"/>
        <path class="ae" d="m157.27,236.11v-6.57h.81v2.57h0c.04-.33.18-.59.4-.77s.53-.27.91-.27c.5,0,.89.15,1.19.46.29.31.44.72.44,1.25v3.33h-.81v-3.19c0-.37-.09-.66-.28-.86-.19-.2-.45-.3-.77-.3s-.6.11-.8.31c-.2.21-.29.51-.29.89v3.15h-.81Z"/>
        <path class="ae" d="m164.83,236.2c-.37,0-.68-.09-.92-.27-.24-.18-.38-.44-.42-.76h0v.94h-.81v-6.57h.81v1.44l-.02,1.12h0c.05-.32.19-.57.44-.76.24-.19.55-.28.92-.28.5,0,.89.16,1.19.49s.44.78.44,1.35v1.45c0,.56-.15,1.01-.44,1.34s-.69.49-1.19.49Zm-.27-.7c.34,0,.61-.09.8-.27.19-.18.29-.47.29-.87v-1.44c0-.41-.1-.7-.29-.88-.19-.18-.46-.27-.8-.27s-.59.11-.79.32c-.2.21-.29.5-.29.87v1.35c0,.37.1.66.29.87.19.21.46.31.79.31Z"/>
        <path class="ae" d="m169.94,236.18c-.59,0-1.07-.17-1.42-.52-.35-.35-.53-.83-.53-1.46v-1.13c0-.63.17-1.12.52-1.46.35-.35.82-.52,1.42-.52s1.07.17,1.42.52c.35.35.52.83.52,1.46v1.13c0,.62-.18,1.11-.53,1.46-.35.35-.82.52-1.42.52Zm0-.72c.35,0,.63-.1.83-.3.2-.2.3-.49.3-.87v-1.31c0-.38-.1-.68-.3-.87-.2-.2-.48-.3-.83-.3s-.62.1-.83.3c-.2.2-.31.49-.31.87v1.31c0,.38.1.67.31.87.2.2.48.3.83.3Z"/>
        <path class="ae" d="m173.65,236.11v-4.95h.81v.95h.02c.04-.32.18-.57.41-.76.23-.19.53-.28.92-.28.52,0,.91.15,1.19.46.28.31.42.75.42,1.32v.42h-.81v-.42c0-.72-.35-1.08-1.05-1.08-.35,0-.62.1-.81.31-.19.2-.28.5-.28.88v3.15h-.81Z"/>
      </g>
      <g>
        <path class="ae" d="m135.13,247c-.37,0-.68-.09-.92-.28-.24-.18-.38-.44-.42-.76h0v.95h-.81v-6.57h.81v1.44l-.02,1.12h0c.05-.32.19-.57.44-.76s.55-.28.92-.28c.5,0,.89.17,1.19.5s.44.78.44,1.35v1.45c0,.56-.15,1.01-.44,1.34-.29.33-.69.5-1.19.5Zm-.27-.7c.34,0,.61-.09.8-.27s.29-.47.29-.87v-1.44c0-.41-.1-.7-.29-.88-.19-.18-.46-.27-.8-.27s-.59.1-.79.31c-.2.21-.29.5-.29.87v1.35c0,.37.1.66.29.87.19.21.46.32.79.32Z"/>
        <path class="ae" d="m140.24,247c-.58,0-1.05-.18-1.41-.53-.36-.35-.54-.83-.54-1.45v-1.17c0-.62.18-1.1.54-1.45.36-.35.83-.53,1.41-.53.39,0,.73.08,1.02.23.29.16.52.38.68.66s.24.62.24,1v.88h-3.1v.47c0,.37.1.66.31.87s.49.32.84.32c.3,0,.55-.06.74-.18.19-.12.31-.27.36-.47h.81c-.05.41-.25.74-.6.98-.35.24-.78.37-1.3.37Zm-1.15-2.99h2.3v-.25c0-.39-.1-.69-.3-.9-.2-.21-.48-.32-.85-.32s-.65.11-.85.32c-.2.21-.3.51-.3.9v.25Z"/>
        <path class="ae" d="m143.77,246.91v-6.57h.81v2.56h0c.04-.33.18-.58.4-.76s.53-.27.91-.27c.5,0,.89.15,1.19.46.29.31.44.72.44,1.25v3.33h-.81v-3.2c0-.37-.09-.66-.28-.86s-.45-.3-.77-.3-.6.1-.8.32c-.2.21-.29.51-.29.89v3.15h-.81Z"/>
        <path class="ae" d="m150.61,247c-.51,0-.92-.14-1.21-.43-.3-.29-.45-.66-.45-1.12,0-.31.07-.57.21-.8.14-.23.33-.41.58-.54.25-.13.53-.19.85-.19h1.53v-.39c0-.64-.35-.96-1.05-.96-.31,0-.56.06-.76.17-.19.12-.29.27-.31.48h-.81c.03-.39.21-.71.54-.97.33-.25.78-.38,1.33-.38.6,0,1.06.14,1.38.43.32.29.48.69.48,1.21v3.4h-.8v-.9h-.02c-.05.31-.2.55-.46.72-.26.18-.6.27-1.03.27Zm.2-.68c.4,0,.71-.1.95-.29.23-.19.35-.45.35-.78v-.69h-1.44c-.26,0-.48.08-.64.24-.17.16-.25.37-.25.63s.09.49.27.65.44.24.76.24Z"/>
        <path class="ae" d="m155.91,246.91l-1.68-4.95h.87l1.08,3.33c.07.2.12.39.17.57s.08.33.11.43c.03-.1.07-.24.11-.43.04-.18.09-.37.15-.57l1.08-3.33h.85l-1.68,4.95h-1.06Z"/>
        <path class="ae" d="m159.9,246.91v-.74h1.75v-3.47h-1.58v-.74h2.39v4.21h1.67v.74h-4.23Zm2.07-5.84c-.2,0-.35-.05-.47-.15-.11-.1-.17-.24-.17-.41s.06-.32.17-.43c.11-.11.27-.16.47-.16s.35.05.47.16c.11.11.17.25.17.43s-.06.31-.17.41c-.11.1-.27.15-.47.15Z"/>
        <path class="ae" d="m167.24,246.98c-.59,0-1.07-.17-1.42-.52-.35-.35-.53-.83-.53-1.46v-1.13c0-.63.17-1.12.52-1.46.35-.34.82-.52,1.42-.52s1.07.17,1.42.52c.35.34.52.83.52,1.46v1.13c0,.62-.18,1.11-.53,1.46-.35.35-.82.52-1.42.52Zm0-.72c.35,0,.63-.1.83-.3.2-.2.3-.49.3-.87v-1.31c0-.38-.1-.67-.3-.87-.2-.2-.48-.3-.83-.3s-.62.1-.83.3c-.2.2-.31.49-.31.87v1.31c0,.38.1.67.31.87.2.2.48.3.83.3Z"/>
        <path class="ae" d="m170.95,246.91v-4.95h.81v.95h.02c.04-.32.18-.57.41-.76.23-.19.53-.28.92-.28.52,0,.91.16,1.19.46.28.31.42.75.42,1.32v.42h-.81v-.42c0-.72-.35-1.08-1.05-1.08-.35,0-.62.1-.81.3-.19.21-.28.5-.28.88v3.15h-.81Z"/>
        <path class="ae" d="m177.84,246.98c-.55,0-.98-.12-1.28-.37-.3-.25-.45-.6-.45-1.06h.81c0,.23.08.41.24.54s.39.19.68.19h.4c.3,0,.53-.07.7-.2.16-.13.25-.32.25-.56,0-.43-.19-.67-.58-.72l-1.37-.2c-.34-.05-.6-.19-.78-.42-.19-.23-.28-.54-.28-.91,0-.43.15-.77.45-1.02s.71-.37,1.23-.37h.4c.48,0,.87.12,1.17.36.3.24.47.55.49.93h-.82c-.01-.17-.09-.32-.25-.43-.15-.11-.35-.17-.6-.17h-.4c-.28,0-.49.06-.65.19-.16.13-.23.3-.23.51,0,.35.16.55.48.59l1.28.18c.84.12,1.26.61,1.26,1.48,0,.46-.15.82-.45,1.08-.3.25-.73.38-1.28.38h-.4Z"/>
      </g>
      <g class="ao">
        <rect class="af" x="313.5" y="162.81" width="73.61" height="25.35" rx="4.25" ry="4.25"/>
      </g>
      <g>
        <path class="ae" d="m326.85,179.37v-6.57h2.02c.39,0,.73.08,1.03.24.29.16.52.38.68.66.16.28.24.61.24.99,0,.44-.11.83-.34,1.14s-.53.54-.91.67l1.34,2.87h-.89l-1.29-2.79h-1.09v2.79h-.8Zm.8-3.52h1.22c.34,0,.61-.11.81-.32s.31-.49.31-.84-.1-.64-.31-.85-.47-.32-.81-.32h-1.22v2.32Z"/>
        <path class="ae" d="m333.68,179.46c-.51,0-.92-.14-1.21-.43-.3-.29-.45-.66-.45-1.12,0-.31.07-.57.21-.8.14-.23.33-.41.58-.54.25-.13.53-.19.85-.19h1.53v-.39c0-.64-.35-.96-1.05-.96-.31,0-.56.06-.76.17-.19.12-.29.27-.31.48h-.81c.03-.39.21-.71.54-.97.33-.25.78-.38,1.33-.38.6,0,1.06.14,1.38.43.32.29.48.69.48,1.21v3.4h-.8v-.9h-.02c-.05.31-.2.55-.46.72-.26.18-.6.27-1.03.27Zm.2-.68c.4,0,.71-.1.95-.29.23-.19.35-.45.35-.78v-.69h-1.44c-.26,0-.48.08-.64.24-.17.16-.25.37-.25.63s.09.49.27.65.44.24.76.24Z"/>
        <path class="ae" d="m338.41,180.99l.73-1.93-1.85-4.64h.87l1.17,3.06c.05.12.09.25.14.38s.07.25.09.34c.02-.1.05-.21.09-.34.04-.13.08-.26.13-.38l1.09-3.06h.85l-2.47,6.57h-.85Z"/>
        <path class="ae" d="m344.98,179.46c-.6,0-1.08-.17-1.44-.5s-.54-.8-.54-1.39v-1.35c0-.59.18-1.05.54-1.39.36-.34.84-.5,1.44-.5s1.03.15,1.38.46c.35.31.54.72.55,1.25h-.81c-.02-.32-.13-.56-.32-.73-.2-.17-.47-.26-.8-.26-.35,0-.64.1-.85.3-.21.2-.32.49-.32.86v1.36c0,.37.11.66.32.86s.5.31.85.31.6-.09.8-.26c.2-.17.31-.42.32-.73h.81c-.02.53-.2.95-.55,1.25-.35.31-.81.46-1.38.46Z"/>
        <path class="ae" d="m349.88,179.46c-.51,0-.92-.14-1.21-.43-.3-.29-.45-.66-.45-1.12,0-.31.07-.57.21-.8.14-.23.33-.41.58-.54.25-.13.53-.19.85-.19h1.53v-.39c0-.64-.35-.96-1.05-.96-.31,0-.56.06-.76.17-.19.12-.29.27-.31.48h-.81c.03-.39.21-.71.54-.97.33-.25.78-.38,1.33-.38.6,0,1.06.14,1.38.43.32.29.48.69.48,1.21v3.4h-.8v-.9h-.02c-.05.31-.2.55-.46.72-.26.18-.6.27-1.03.27Zm.2-.68c.4,0,.71-.1.95-.29.23-.19.35-.45.35-.78v-.69h-1.44c-.26,0-.48.08-.64.24-.17.16-.25.37-.25.63s.09.49.27.65.44.24.76.24Z"/>
        <path class="ae" d="m355.51,179.44c-.55,0-.98-.12-1.28-.37-.3-.25-.45-.6-.45-1.06h.81c0,.23.08.41.24.54s.39.19.68.19h.4c.3,0,.53-.07.7-.2.16-.13.25-.32.25-.56,0-.43-.19-.67-.58-.72l-1.37-.2c-.34-.05-.6-.19-.78-.42-.19-.23-.28-.54-.28-.91,0-.43.15-.77.45-1.02s.71-.37,1.23-.37h.4c.48,0,.87.12,1.17.36.3.24.47.55.49.93h-.82c-.01-.17-.09-.32-.25-.43-.15-.11-.35-.17-.6-.17h-.4c-.28,0-.49.06-.65.19-.16.13-.23.3-.23.51,0,.35.16.55.48.59l1.28.18c.84.12,1.26.61,1.26,1.48,0,.46-.15.82-.45,1.08-.3.25-.73.38-1.28.38h-.4Z"/>
        <path class="ae" d="m361.6,179.37c-.41,0-.73-.12-.98-.36-.25-.24-.37-.55-.37-.95v-2.91h-1.42v-.74h1.42v-1.39h.81v1.39h2.03v.74h-2.03v2.91c0,.17.05.3.15.41.1.11.23.16.39.16h1.44v.74h-1.44Z"/>
        <path class="ae" d="m373.01,180.99l-.93-1.54s-.05,0-.08,0c-.03,0-.06,0-.09,0-.61,0-1.09-.18-1.44-.53-.36-.35-.54-.82-.54-1.41v-2.88c0-.59.18-1.06.54-1.41s.84-.53,1.44-.53,1.09.18,1.44.53.54.82.54,1.41v2.88c0,.4-.09.75-.26,1.05-.17.3-.42.53-.74.68l1.05,1.74h-.94Zm-1.1-2.25c.35,0,.64-.11.85-.33.21-.22.32-.52.32-.88v-2.88c0-.37-.11-.67-.32-.89-.21-.22-.5-.33-.85-.33s-.64.11-.85.33c-.21.22-.32.51-.32.89v2.88c0,.37.11.66.32.88.21.22.5.33.85.33Z"/>
      </g>
      <line class="aa" x1="350.31" y1="194.33" x2="350.31" y2="214.15"/>
      <polyline class="aa" points="354.03 210.15 350.31 214.15 346.59 210.15"/>
      <g>
        <path class="ae" d="m345.55,287.7c-.35,0-.64-.29-.64-.63s.29-.64.64-.64.64.29.64.64-.29.63-.64.63Z"/>
        <path class="ae" d="m350.32,287.7c-.35,0-.64-.29-.64-.63s.29-.64.64-.64.64.29.64.64-.29.63-.64.63Z"/>
        <path class="ae" d="m355.09,287.7c-.35,0-.64-.29-.64-.63s.29-.64.64-.64.64.29.64.64-.29.63-.64.63Z"/>
      </g>
      <g>
        <path class="ae" d="m332.25,236.11v-6.57h2.02c.39,0,.73.08,1.03.24.29.16.52.38.68.66.16.28.24.61.24.99,0,.44-.11.83-.34,1.14-.23.32-.53.54-.91.67l1.34,2.87h-.89l-1.29-2.79h-1.09v2.79h-.8Zm.8-3.52h1.22c.34,0,.61-.11.81-.32s.31-.49.31-.84-.1-.64-.31-.85-.47-.31-.81-.31h-1.22v2.32Z"/>
        <path class="ae" d="m339.08,236.2c-.51,0-.92-.14-1.21-.43-.3-.29-.45-.66-.45-1.12,0-.31.07-.57.21-.8.14-.23.33-.41.58-.54.25-.13.53-.19.85-.19h1.53v-.39c0-.64-.35-.96-1.05-.96-.31,0-.56.06-.76.17-.19.11-.29.27-.31.48h-.81c.03-.39.21-.71.54-.97s.78-.38,1.33-.38c.6,0,1.06.14,1.38.43.32.29.48.69.48,1.21v3.4h-.8v-.9h-.02c-.05.31-.2.55-.46.72s-.6.26-1.03.26Zm.2-.68c.4,0,.71-.1.95-.29.23-.19.35-.45.35-.78v-.69h-1.44c-.26,0-.48.08-.64.24-.17.16-.25.37-.25.63s.09.49.27.65c.18.16.44.24.76.24Z"/>
        <path class="ae" d="m343.81,237.73l.73-1.93-1.85-4.64h.87l1.17,3.06c.05.12.09.25.14.38.04.13.07.25.09.34.02-.1.05-.21.09-.34.04-.13.08-.26.13-.38l1.09-3.06h.85l-2.47,6.57h-.85Z"/>
        <path class="ae" d="m350.38,236.2c-.6,0-1.08-.17-1.44-.5s-.54-.8-.54-1.38v-1.35c0-.59.18-1.05.54-1.39s.84-.5,1.44-.5,1.03.15,1.38.46c.35.31.54.72.55,1.25h-.81c-.02-.32-.13-.56-.32-.73-.2-.17-.47-.26-.8-.26-.35,0-.64.1-.85.3s-.32.49-.32.86v1.36c0,.37.11.66.32.86s.5.31.85.31.6-.09.8-.26c.2-.17.31-.42.32-.73h.81c-.02.53-.2.95-.55,1.25-.35.31-.81.46-1.38.46Z"/>
        <path class="ae" d="m355.28,236.2c-.51,0-.92-.14-1.21-.43-.3-.29-.45-.66-.45-1.12,0-.31.07-.57.21-.8.14-.23.33-.41.58-.54.25-.13.53-.19.85-.19h1.53v-.39c0-.64-.35-.96-1.05-.96-.31,0-.56.06-.76.17-.19.11-.29.27-.31.48h-.81c.03-.39.21-.71.54-.97s.78-.38,1.33-.38c.6,0,1.06.14,1.38.43.32.29.48.69.48,1.21v3.4h-.8v-.9h-.02c-.05.31-.2.55-.46.72s-.6.26-1.03.26Zm.2-.68c.4,0,.71-.1.95-.29.23-.19.35-.45.35-.78v-.69h-1.44c-.26,0-.48.08-.64.24-.17.16-.25.37-.25.63s.09.49.27.65c.18.16.44.24.76.24Z"/>
        <path class="ae" d="m360.91,236.18c-.55,0-.98-.12-1.28-.37-.3-.25-.45-.6-.45-1.06h.81c0,.23.08.41.24.54.16.13.39.19.68.19h.4c.3,0,.53-.07.7-.2.16-.13.25-.32.25-.56,0-.43-.19-.67-.58-.72l-1.37-.2c-.34-.05-.6-.19-.78-.42-.19-.23-.28-.54-.28-.91,0-.43.15-.77.45-1.02s.71-.37,1.23-.37h.4c.48,0,.87.12,1.17.36.3.24.47.55.49.93h-.82c-.01-.17-.09-.32-.25-.43-.15-.11-.35-.17-.6-.17h-.4c-.28,0-.49.06-.65.19-.16.13-.23.3-.23.51,0,.35.16.55.48.59l1.28.18c.84.12,1.26.61,1.26,1.48,0,.46-.15.82-.45,1.08-.3.26-.73.38-1.28.38h-.4Z"/>
        <path class="ae" d="m367,236.11c-.41,0-.73-.12-.98-.36-.25-.24-.37-.55-.37-.95v-2.91h-1.42v-.74h1.42v-1.4h.81v1.4h2.03v.74h-2.03v2.91c0,.17.05.3.15.41.1.1.23.16.39.16h1.44v.74h-1.44Z"/>
      </g>
      <g>
        <path class="ae" d="m329,247c-.37,0-.68-.09-.92-.28-.24-.18-.38-.44-.42-.76h0v.95h-.81v-6.57h.81v1.44l-.02,1.12h0c.05-.32.19-.57.44-.76s.55-.28.92-.28c.5,0,.89.17,1.19.5s.44.78.44,1.35v1.45c0,.56-.15,1.01-.44,1.34-.29.33-.69.5-1.19.5Zm-.27-.7c.34,0,.61-.09.8-.27s.29-.47.29-.87v-1.44c0-.41-.1-.7-.29-.88-.19-.18-.46-.27-.8-.27s-.59.1-.79.31c-.2.21-.29.5-.29.87v1.35c0,.37.1.66.29.87.19.21.46.32.79.32Z"/>
        <path class="ae" d="m334.11,247c-.58,0-1.05-.18-1.41-.53-.36-.35-.54-.83-.54-1.45v-1.17c0-.62.18-1.1.54-1.45.36-.35.83-.53,1.41-.53.39,0,.73.08,1.02.23.29.16.52.38.68.66s.24.62.24,1v.88h-3.1v.47c0,.37.1.66.31.87s.49.32.84.32c.3,0,.55-.06.74-.18.19-.12.31-.27.36-.47h.81c-.05.41-.25.74-.6.98-.35.24-.78.37-1.3.37Zm-1.15-2.99h2.3v-.25c0-.39-.1-.69-.3-.9-.2-.21-.48-.32-.85-.32s-.65.11-.85.32c-.2.21-.3.51-.3.9v.25Z"/>
        <path class="ae" d="m337.64,246.91v-6.57h.81v2.56h0c.04-.33.18-.58.4-.76s.53-.27.91-.27c.5,0,.89.15,1.19.46.29.31.44.72.44,1.25v3.33h-.81v-3.2c0-.37-.09-.66-.28-.86s-.45-.3-.77-.3-.6.1-.8.32c-.2.21-.29.51-.29.89v3.15h-.81Z"/>
        <path class="ae" d="m344.48,247c-.51,0-.92-.14-1.21-.43-.3-.29-.45-.66-.45-1.12,0-.31.07-.57.21-.8.14-.23.33-.41.58-.54.25-.13.53-.19.85-.19h1.53v-.39c0-.64-.35-.96-1.05-.96-.31,0-.56.06-.76.17-.19.12-.29.27-.31.48h-.81c.03-.39.21-.71.54-.97.33-.25.78-.38,1.33-.38.6,0,1.06.14,1.38.43.32.29.48.69.48,1.21v3.4h-.8v-.9h-.02c-.05.31-.2.55-.46.72-.26.18-.6.27-1.03.27Zm.2-.68c.4,0,.71-.1.95-.29.23-.19.35-.45.35-.78v-.69h-1.44c-.26,0-.48.08-.64.24-.17.16-.25.37-.25.63s.09.49.27.65.44.24.76.24Z"/>
        <path class="ae" d="m349.78,246.91l-1.68-4.95h.87l1.08,3.33c.07.2.12.39.17.57s.08.33.11.43c.03-.1.07-.24.11-.43.04-.18.09-.37.15-.57l1.08-3.33h.85l-1.68,4.95h-1.06Z"/>
        <path class="ae" d="m353.77,246.91v-.74h1.75v-3.47h-1.58v-.74h2.39v4.21h1.67v.74h-4.23Zm2.07-5.84c-.2,0-.35-.05-.47-.15-.11-.1-.17-.24-.17-.41s.06-.32.17-.43c.11-.11.27-.16.47-.16s.35.05.47.16c.11.11.17.25.17.43s-.06.31-.17.41c-.11.1-.27.15-.47.15Z"/>
        <path class="ae" d="m361.11,246.98c-.59,0-1.07-.17-1.42-.52-.35-.35-.53-.83-.53-1.46v-1.13c0-.63.17-1.12.52-1.46.35-.34.82-.52,1.42-.52s1.07.17,1.42.52c.35.34.52.83.52,1.46v1.13c0,.62-.18,1.11-.53,1.46-.35.35-.82.52-1.42.52Zm0-.72c.35,0,.63-.1.83-.3.2-.2.3-.49.3-.87v-1.31c0-.38-.1-.67-.3-.87-.2-.2-.48-.3-.83-.3s-.62.1-.83.3c-.2.2-.31.49-.31.87v1.31c0,.38.1.67.31.87.2.2.48.3.83.3Z"/>
        <path class="ae" d="m364.82,246.91v-4.95h.81v.95h.02c.04-.32.18-.57.41-.76.23-.19.53-.28.92-.28.52,0,.91.16,1.19.46.28.31.42.75.42,1.32v.42h-.81v-.42c0-.72-.35-1.08-1.05-1.08-.35,0-.62.1-.81.3-.19.21-.28.5-.28.88v3.15h-.81Z"/>
        <path class="ae" d="m371.71,246.98c-.55,0-.98-.12-1.28-.37-.3-.25-.45-.6-.45-1.06h.81c0,.23.08.41.24.54s.39.19.68.19h.4c.3,0,.53-.07.7-.2.16-.13.25-.32.25-.56,0-.43-.19-.67-.58-.72l-1.37-.2c-.34-.05-.6-.19-.78-.42-.19-.23-.28-.54-.28-.91,0-.43.15-.77.45-1.02s.71-.37,1.23-.37h.4c.48,0,.87.12,1.17.36.3.24.47.55.49.93h-.82c-.01-.17-.09-.32-.25-.43-.15-.11-.35-.17-.6-.17h-.4c-.28,0-.49.06-.65.19-.16.13-.23.3-.23.51,0,.35.16.55.48.59l1.28.18c.84.12,1.26.61,1.26,1.48,0,.46-.15.82-.45,1.08-.3.25-.73.38-1.28.38h-.4Z"/>
      </g>
      <g class="ar">
        <rect class="ag" x="219.63" y="97.48" width="50.45" height="233.23" rx="4.25" ry="4.25"/>
        <rect class="ag" x="413.5" y="97.48" width="50.45" height="233.23" rx="4.25" ry="4.25"/>
        <rect class="af" x="226.71" y="104.57" width="26.67" height="25.35" rx="4.25" ry="4.25"/>
        <rect class="af" x="226.71" y="220.8" width="36.28" height="102.82" rx="4.25" ry="4.25"/>
        <rect class="af" x="420.59" y="220.8" width="36.28" height="102.82" rx="4.25" ry="4.25"/>
        <rect class="af" x="226.71" y="162.81" width="36.28" height="25.35" rx="4.25" ry="4.25"/>
        <rect class="af" x="420.59" y="162.81" width="36.28" height="25.35" rx="4.25" ry="4.25"/>
      </g>
      <line class="aa" x1="240.05" y1="136.09" x2="240.05" y2="155.91"/>
      <polyline class="aa" points="243.77 151.9 240.05 155.91 236.33 151.9"/>
      <line class="aa" x1="244.85" y1="194.33" x2="244.85" y2="214.15"/>
      <polyline class="aa" points="248.58 210.15 244.85 214.15 241.13 210.15"/>
      <line class="aa" x1="438.72" y1="194.33" x2="438.72" y2="214.15"/>
      <polyline class="aa" points="442.45 210.15 438.72 214.15 435 210.15"/>
      <line class="aa" x1="185.38" y1="100.46" x2="185.38" y2="155.91"/>
      <polyline class="aa" points="189.11 151.9 185.38 155.91 181.66 151.9"/>
      <line class="aa" x1="44.86" y1="323.87" x2="44.86" y2="387.44"/>
      <polyline class="aa" points="48.59 383.44 44.86 387.44 41.14 383.44"/>
      <line class="aa" x1="200.71" y1="356.64" x2="200.71" y2="387.44"/>
      <polyline class="aa" points="204.43 383.44 200.71 387.44 196.99 383.44"/>
      <line class="aa" x1="394.43" y1="356.64" x2="394.43" y2="387.44"/>
      <polyline class="aa" points="398.16 383.44 394.43 387.44 390.71 383.44"/>
      <line class="aa" x1="45.99" y1="40.51" x2="45.99" y2="214.15"/>
      <polyline class="aa" points="49.71 210.15 45.99 214.15 42.26 210.15"/>
      <line class="aa" x1="350.31" y1="117.24" x2="350.31" y2="155.91"/>
      <polyline class="aa" points="354.03 151.9 350.31 155.91 346.59 151.9"/>
      <g class="aj">
        <rect class="af" x="358.42" y="256.38" width="21.61" height="59.91" rx="4.25" ry="4.25"/>
        <rect class="z" x="358.42" y="256.38" width="21.61" height="59.91" rx="4.25" ry="4.25"/>
      </g>
      <line class="aa" x1="259.96" y1="100.46" x2="259.96" y2="155.91"/>
      <polyline class="aa" points="263.68 151.9 259.96 155.91 256.23 151.9"/>
      <line class="aa" x1="438.72" y1="117.24" x2="438.72" y2="155.91"/>
      <polyline class="aa" points="442.45 151.9 438.72 155.91 435 151.9"/>
      <g class="ak">
        <path class="aa" d="m137.73,312.48v7.35c0,2.35,1.9,4.25,4.25,4.25h28.62c2.35,0,4.25-1.9,4.25-4.25v-7.35"/>
        <rect class="af" x="126.43" y="256.38" width="21.61" height="59.91" rx="4.25" ry="4.25"/>
        <rect class="z" x="126.43" y="256.38" width="21.61" height="59.91" rx="4.25" ry="4.25"/>
      </g>
      <path class="ae" d="m130.55,280.65v-8.76h2.48c.8,0,1.43.2,1.88.6.45.4.68.96.68,1.67,0,.45-.14.85-.43,1.21-.28.36-.65.58-1.11.67v.04c.34.04.65.16.91.36.26.2.46.45.61.76.15.31.22.65.22,1.01,0,.75-.23,1.35-.69,1.78s-1.09.65-1.89.65h-2.66Zm1.06-5.03h1.42c.46,0,.83-.12,1.1-.37s.4-.58.4-1.01-.13-.76-.4-1.01c-.26-.25-.63-.37-1.09-.37h-1.43v2.76Zm0,4.06h1.49c.5,0,.9-.13,1.19-.4.29-.27.44-.63.44-1.1s-.15-.87-.44-1.17-.69-.45-1.19-.45h-1.49v3.12Z"/>
      <g>
        <path class="ae" d="m138.58,284.7c-.43,0-.76-.1-1-.29-.24-.19-.35-.47-.35-.82h.63c0,.18.06.32.19.42s.3.15.53.15h.31c.23,0,.41-.05.54-.15.13-.1.19-.25.19-.43,0-.33-.15-.52-.45-.56l-1.06-.15c-.26-.04-.46-.14-.61-.32s-.22-.42-.22-.71c0-.34.12-.6.35-.79.23-.19.55-.29.96-.29h.31c.37,0,.68.09.91.28.24.18.36.43.38.72h-.64c0-.14-.07-.25-.19-.34-.12-.09-.27-.13-.46-.13h-.31c-.21,0-.38.05-.5.15-.12.1-.18.23-.18.4,0,.27.12.42.37.46l.99.14c.65.09.98.48.98,1.15,0,.36-.12.64-.35.84-.24.2-.57.3-1,.3h-.31Z"/>
        <path class="ae" d="m141.46,284.65v-.57h1.38v-3.99l-1.38,1.04v-.72l1.15-.86h.86v4.53h1.13v.57h-3.15Z"/>
      </g>
      <g class="aq">
        <rect class="af" x="164.55" y="256.38" width="21.61" height="59.91" rx="4.25" ry="4.25"/>
        <rect class="z" x="164.55" y="256.38" width="21.61" height="59.91" rx="4.25" ry="4.25"/>
      </g>
      <path class="ae" d="m168.67,280.65v-8.76h2.48c.8,0,1.43.2,1.88.6.45.4.68.96.68,1.67,0,.45-.14.85-.43,1.21-.28.36-.65.58-1.11.67v.04c.34.04.65.16.91.36.26.2.46.45.61.76.15.31.22.65.22,1.01,0,.75-.23,1.35-.69,1.78s-1.09.65-1.89.65h-2.66Zm1.06-5.03h1.42c.46,0,.83-.12,1.1-.37s.4-.58.4-1.01-.13-.76-.4-1.01c-.26-.25-.63-.37-1.09-.37h-1.43v2.76Zm0,4.06h1.49c.5,0,.9-.13,1.19-.4.29-.27.44-.63.44-1.1s-.15-.87-.44-1.17-.69-.45-1.19-.45h-1.49v3.12Z"/>
      <g>
        <path class="ae" d="m176.7,284.7c-.43,0-.76-.1-1-.29-.24-.19-.35-.47-.35-.82h.63c0,.18.06.32.19.42s.3.15.53.15h.31c.23,0,.41-.05.54-.15.13-.1.19-.25.19-.43,0-.33-.15-.52-.45-.56l-1.06-.15c-.26-.04-.46-.14-.61-.32s-.22-.42-.22-.71c0-.34.12-.6.35-.79.23-.19.55-.29.96-.29h.31c.37,0,.68.09.91.28.24.18.36.43.38.72h-.64c0-.14-.07-.25-.19-.34-.12-.09-.27-.13-.46-.13h-.31c-.21,0-.38.05-.5.15-.12.1-.18.23-.18.4,0,.27.12.42.37.46l.99.14c.65.09.98.48.98,1.15,0,.36-.12.64-.35.84-.24.2-.57.3-1,.3h-.31Z"/>
        <path class="ae" d="m179.63,284.65v-5.11h.63v2.85h.73l1.08-1.59h.72l-1.24,1.83,1.31,2.01h-.73l-1.12-1.71h-.75v1.71h-.63Z"/>
      </g>
      <g class="ai">
        <path class="aa" d="m156.57,323.62v17.85c0,8.09,6.58,14.67,14.67,14.67h58.94c8.09,0,14.67-6.58,14.67-14.67v-17.85"/>
        <path class="aa" d="m350.29,323.62v17.85c0,8.09,6.58,14.67,14.67,14.67h58.94c8.09,0,14.67-6.58,14.67-14.67v-17.85"/>
      </g>
      <path class="ae" d="m362.54,280.65v-8.76h2.48c.8,0,1.43.2,1.88.6.45.4.68.96.68,1.67,0,.45-.14.85-.43,1.21-.28.36-.65.58-1.11.67v.04c.34.04.65.16.91.36.26.2.46.45.61.76.15.31.22.65.22,1.01,0,.75-.23,1.35-.69,1.78s-1.09.65-1.89.65h-2.66Zm1.06-5.03h1.42c.46,0,.83-.12,1.1-.37s.4-.58.4-1.01-.13-.76-.4-1.01c-.26-.25-.63-.37-1.09-.37h-1.43v2.76Zm0,4.06h1.49c.5,0,.9-.13,1.19-.4.29-.27.44-.63.44-1.1s-.15-.87-.44-1.17-.69-.45-1.19-.45h-1.49v3.12Z"/>
      <g>
        <path class="ae" d="m370.57,284.7c-.43,0-.76-.1-1-.29-.24-.19-.35-.47-.35-.82h.63c0,.18.06.32.19.42s.3.15.53.15h.31c.23,0,.41-.05.54-.15.13-.1.19-.25.19-.43,0-.33-.15-.52-.45-.56l-1.06-.15c-.26-.04-.46-.14-.61-.32s-.22-.42-.22-.71c0-.34.12-.6.35-.79.23-.19.55-.29.96-.29h.31c.37,0,.68.09.91.28.24.18.36.43.38.72h-.64c0-.14-.07-.25-.19-.34-.12-.09-.27-.13-.46-.13h-.31c-.21,0-.38.05-.5.15-.12.1-.18.23-.18.4,0,.27.12.42.37.46l.99.14c.65.09.98.48.98,1.15,0,.36-.12.64-.35.84-.24.2-.57.3-1,.3h-.31Z"/>
        <path class="ae" d="m373.5,284.65v-5.11h.63v2.85h.73l1.08-1.59h.72l-1.24,1.83,1.31,2.01h-.73l-1.12-1.71h-.75v1.71h-.63Z"/>
      </g>
      <g class="an">
        <rect class="af" x="320.3" y="256.38" width="21.61" height="59.91" rx="4.25" ry="4.25"/>
        <rect class="z" x="320.3" y="256.38" width="21.61" height="59.91" rx="4.25" ry="4.25"/>
      </g>
      <path class="ae" d="m324.42,280.65v-8.76h2.48c.8,0,1.43.2,1.88.6.45.4.68.96.68,1.67,0,.45-.14.85-.43,1.21-.28.36-.65.58-1.11.67v.04c.34.04.65.16.91.36.26.2.46.45.61.76.15.31.22.65.22,1.01,0,.75-.23,1.35-.69,1.78s-1.09.65-1.89.65h-2.66Zm1.06-5.03h1.42c.46,0,.83-.12,1.1-.37s.4-.58.4-1.01-.13-.76-.4-1.01c-.26-.25-.63-.37-1.09-.37h-1.43v2.76Zm0,4.06h1.49c.5,0,.9-.13,1.19-.4.29-.27.44-.63.44-1.1s-.15-.87-.44-1.17-.69-.45-1.19-.45h-1.49v3.12Z"/>
      <g>
        <path class="ae" d="m332.45,284.7c-.43,0-.76-.1-1-.29-.24-.19-.35-.47-.35-.82h.63c0,.18.06.32.19.42s.3.15.53.15h.31c.23,0,.41-.05.54-.15.13-.1.19-.25.19-.43,0-.33-.15-.52-.45-.56l-1.06-.15c-.26-.04-.46-.14-.61-.32s-.22-.42-.22-.71c0-.34.12-.6.35-.79.23-.19.55-.29.96-.29h.31c.37,0,.68.09.91.28.24.18.36.43.38.72h-.64c0-.14-.07-.25-.19-.34-.12-.09-.27-.13-.46-.13h-.31c-.21,0-.38.05-.5.15-.12.1-.18.23-.18.4,0,.27.12.42.37.46l.99.14c.65.09.98.48.98,1.15,0,.36-.12.64-.35.84-.24.2-.57.3-1,.3h-.31Z"/>
        <path class="ae" d="m335.33,284.65v-.57h1.38v-3.99l-1.38,1.04v-.72l1.15-.86h.86v4.53h1.13v.57h-3.15Z"/>
      </g>
      <g class="al">
        <path class="aa" d="m27.42,312.48v7.35c0,2.35,1.9,4.25,4.25,4.25h28.62c2.35,0,4.25-1.9,4.25-4.25v-7.35"/>
        <rect class="af" x="15.97" y="256.38" width="21.61" height="59.91" rx="4.25" ry="4.25"/>
        <rect class="z" x="15.97" y="256.38" width="21.61" height="59.91" rx="4.25" ry="4.25"/>
        <rect class="af" x="54.1" y="256.38" width="21.61" height="59.91" rx="4.25" ry="4.25"/>
        <rect class="z" x="54.1" y="256.38" width="21.61" height="59.91" rx="4.25" ry="4.25"/>
      </g>
      <path class="ae" d="m58.22,280.65v-8.76h2.48c.8,0,1.43.2,1.88.6.45.4.68.96.68,1.67,0,.45-.14.85-.43,1.21-.28.36-.65.58-1.11.67v.04c.34.04.65.16.91.36.26.2.46.45.61.76.15.31.22.65.22,1.01,0,.75-.23,1.35-.69,1.78s-1.09.65-1.89.65h-2.66Zm1.06-5.03h1.42c.46,0,.83-.12,1.1-.37s.4-.58.4-1.01-.13-.76-.4-1.01c-.26-.25-.63-.37-1.09-.37h-1.43v2.76Zm0,4.06h1.49c.5,0,.9-.13,1.19-.4.29-.27.44-.63.44-1.1s-.15-.87-.44-1.17-.69-.45-1.19-.45h-1.49v3.12Z"/>
      <g>
        <path class="ae" d="m66.25,284.7c-.43,0-.76-.1-1-.29-.24-.19-.35-.47-.35-.82h.63c0,.18.06.32.19.42s.3.15.53.15h.31c.23,0,.41-.05.54-.15.13-.1.19-.25.19-.43,0-.33-.15-.52-.45-.56l-1.06-.15c-.26-.04-.46-.14-.61-.32s-.22-.42-.22-.71c0-.34.12-.6.35-.79.23-.19.55-.29.96-.29h.31c.37,0,.68.09.91.28.24.18.36.43.38.72h-.64c0-.14-.07-.25-.19-.34-.12-.09-.27-.13-.46-.13h-.31c-.21,0-.38.05-.5.15-.12.1-.18.23-.18.4,0,.27.12.42.37.46l.99.14c.65.09.98.48.98,1.15,0,.36-.12.64-.35.84-.24.2-.57.3-1,.3h-.31Z"/>
        <path class="ae" d="m69.18,284.65v-5.11h.63v2.85h.73l1.08-1.59h.72l-1.24,1.83,1.31,2.01h-.73l-1.12-1.71h-.75v1.71h-.63Z"/>
      </g>
      <path class="ae" d="m20.1,280.82v-8.76h2.48c.8,0,1.43.2,1.88.6.45.4.68.96.68,1.67,0,.45-.14.85-.43,1.21-.28.36-.65.58-1.11.67v.04c.34.04.65.16.91.36.26.2.46.46.61.76.15.31.22.65.22,1.01,0,.75-.23,1.35-.69,1.78s-1.09.65-1.89.65h-2.66Zm1.06-5.03h1.42c.46,0,.83-.12,1.1-.37s.4-.58.4-1.01-.13-.76-.4-1.01c-.26-.25-.63-.37-1.09-.37h-1.43v2.76Zm0,4.06h1.49c.5,0,.9-.13,1.19-.4.29-.27.44-.63.44-1.1s-.15-.87-.44-1.17c-.29-.3-.69-.45-1.19-.45h-1.49v3.12Z"/>
      <g>
        <path class="ae" d="m28.12,284.87c-.43,0-.76-.1-1-.29-.24-.19-.35-.47-.35-.82h.63c0,.18.06.32.19.42.13.1.3.15.53.15h.31c.23,0,.41-.05.54-.15.13-.1.19-.25.19-.43,0-.33-.15-.52-.45-.56l-1.06-.15c-.26-.04-.46-.15-.61-.33s-.22-.42-.22-.71c0-.34.12-.6.35-.79.23-.19.55-.29.96-.29h.31c.37,0,.68.09.91.28.24.18.36.43.38.72h-.64c0-.13-.07-.25-.19-.34-.12-.09-.27-.13-.46-.13h-.31c-.21,0-.38.05-.5.15-.12.1-.18.23-.18.4,0,.27.12.42.37.46l.99.14c.65.09.98.47.98,1.15,0,.36-.12.64-.35.84-.24.2-.57.3-1,.3h-.31Z"/>
        <path class="ae" d="m31.01,284.82v-.57h1.38v-3.99l-1.38,1.04v-.72l1.15-.86h.86v4.53h1.13v.57h-3.15Z"/>
      </g>
      <line class="aa" x1="222.67" y1="40.51" x2="222.67" y2="72.17"/>
      <g class="ah">
        <path class="aa" d="m259.96,112.96v-25.62c0-8.09-6.58-14.67-14.67-14.67h-45.23c-8.09,0-14.67,6.58-14.67,14.67v25.62"/>
      </g>
      <line class="aa" x1="394.52" y1="40.51" x2="394.52" y2="72.17"/>
      <g class="am">
        <path class="aa" d="m438.72,120.92v-33.49c0-8.09-6.58-14.67-14.67-14.67h-59.07c-8.09,0-14.67,6.58-14.67,14.67v33.49"/>
      </g>
      <line class="aa" x1="239.86" y1="427.22" x2="239.86" y2="447.04"/>
      <polyline class="aa" points="243.58 443.03 239.86 447.04 236.13 443.03"/>
      <line class="aa" x1="239.86" y1="472.53" x2="239.86" y2="492.34"/>
      <polyline class="aa" points="243.58 488.34 239.86 492.34 236.13 488.34"/>
      <g>
        <path class="ae" d="m240.52,464.91c0,.35-.29.64-.64.64s-.64-.29-.64-.64.29-.63.64-.63.64.29.64.63Z"/>
        <path class="ae" d="m240.52,460.15c0,.35-.29.64-.64.64s-.64-.29-.64-.64.29-.64.64-.64.64.29.64.64Z"/>
        <path class="ae" d="m240.52,455.37c0,.35-.29.63-.64.63s-.64-.29-.64-.63.29-.64.64-.64.64.29.64.64Z"/>
      </g>
      <line class="aa" x1="239.86" y1="538.01" x2="239.86" y2="557.82"/>
      <polyline class="aa" points="243.58 553.82 239.86 557.82 236.13 553.82"/>
      <line class="aa" x1="239.86" y1="583.31" x2="239.86" y2="603.13"/>
      <polyline class="aa" points="243.58 599.12 239.86 603.13 236.13 599.12"/>
      <g>
        <path class="ae" d="m240.52,575.7c0,.35-.29.64-.64.64s-.64-.29-.64-.64.29-.63.64-.63.64.29.64.63Z"/>
        <path class="ae" d="m240.52,570.92c0,.35-.29.64-.64.64s-.64-.29-.64-.64.29-.64.64-.64.64.29.64.64Z"/>
        <path class="ae" d="m240.52,566.15c0,.35-.29.63-.64.63s-.64-.29-.64-.63.29-.64.64-.64.64.29.64.64Z"/>
      </g>
      <g class="au">
        <rect class="ad" x="172.33" y="498.75" width="135.06" height="33.59" rx="4.25" ry="4.25"/>
      </g>
      <g>
        <path class="af" d="m201.12,519.93v-8.76h1.6l1.12,3.79,1.16-3.79h1.6v8.76h-1.04v-4.14c0-.39,0-.84.02-1.35.01-.51.03-1.02.05-1.54.02-.52.05-.99.08-1.4l-1.42,4.52h-.94l-1.36-4.42c.06.59.11,1.24.13,1.94.02.7.04,1.45.04,2.24v4.14h-1.04Z"/>
        <path class="af" d="m211.06,520.03c-.79,0-1.42-.23-1.89-.7-.47-.46-.7-1.11-.7-1.94v-1.51c0-.84.23-1.49.7-1.95.46-.46,1.1-.69,1.9-.69s1.43.23,1.9.69c.46.46.7,1.11.7,1.95v1.51c0,.83-.23,1.48-.7,1.94-.47.46-1.1.7-1.89.7Zm0-.96c.47,0,.84-.13,1.11-.4.27-.26.4-.65.4-1.16v-1.75c0-.51-.13-.9-.4-1.16-.27-.26-.64-.4-1.11-.4s-.83.13-1.1.4c-.27.26-.41.65-.41,1.16v1.75c0,.51.14.9.41,1.16.27.26.64.4,1.1.4Z"/>
        <path class="af" d="m217.55,519.93l-2.24-6.6h1.16l1.44,4.44c.09.26.16.52.23.76s.11.43.14.57c.04-.14.09-.33.14-.57.06-.24.12-.5.2-.76l1.44-4.44h1.14l-2.24,6.6h-1.42Z"/>
        <path class="af" d="m225.46,520.05c-.78,0-1.4-.23-1.88-.7-.48-.47-.71-1.11-.71-1.94v-1.56c0-.82.24-1.47.71-1.94.48-.47,1.1-.7,1.88-.7.52,0,.97.1,1.36.31s.69.5.91.88c.22.38.32.82.32,1.33v1.18h-4.13v.62c0,.49.14.87.42,1.16.28.28.65.43,1.12.43.4,0,.73-.08.99-.23.26-.16.42-.37.47-.63h1.08c-.07.55-.34.99-.8,1.31s-1.04.49-1.74.49Zm-1.54-3.98h3.07v-.34c0-.52-.13-.92-.4-1.21-.27-.29-.65-.43-1.13-.43s-.87.14-1.13.43c-.27.28-.4.69-.4,1.21v.34Z"/>
        <path class="af" d="m239.91,520.05c-.85,0-1.52-.22-2.03-.67-.5-.45-.76-1.06-.76-1.85h1.08c0,.49.16.87.47,1.15s.72.41,1.24.41.89-.14,1.19-.43c.3-.29.44-.66.44-1.13,0-.35-.09-.66-.28-.92s-.46-.44-.81-.54l-1.33-.37c-.55-.16-.99-.45-1.3-.86-.32-.41-.47-.9-.47-1.46,0-.46.1-.87.31-1.22.21-.35.5-.62.88-.82s.81-.29,1.3-.29.93.1,1.31.29.68.47.89.82c.22.35.32.75.32,1.21h-1.08c0-.4-.14-.73-.41-.98s-.62-.38-1.04-.38-.77.13-1.03.38c-.26.25-.4.58-.4.98,0,.32.09.59.26.82.17.23.41.39.73.47l1.37.38c.58.16,1.04.46,1.36.91.32.44.49.97.49,1.58,0,.77-.24,1.38-.73,1.84-.49.46-1.14.68-1.96.68Z"/>
        <path class="af" d="m245.59,522.09l.97-2.57-2.46-6.19h1.16l1.56,4.08c.06.16.12.33.18.5.06.18.1.33.12.46.02-.13.06-.28.12-.46.06-.18.11-.34.17-.5l1.45-4.08h1.14l-3.29,8.76h-1.13Z"/>
        <path class="af" d="m253.99,520.03c-.74,0-1.31-.17-1.71-.5s-.61-.8-.61-1.41h1.08c0,.3.11.54.32.71.22.17.52.26.91.26h.53c.4,0,.71-.09.93-.26.22-.18.33-.42.33-.74,0-.57-.26-.89-.78-.96l-1.82-.26c-.45-.06-.8-.25-1.04-.56-.25-.31-.37-.71-.37-1.22,0-.58.2-1.03.59-1.36.4-.33.94-.49,1.64-.49h.53c.64,0,1.16.16,1.57.47.4.32.62.73.65,1.24h-1.09c-.02-.23-.13-.42-.33-.58s-.47-.23-.8-.23h-.53c-.37,0-.66.08-.86.25-.21.17-.31.4-.31.68,0,.46.21.73.64.79l1.7.24c1.12.16,1.68.82,1.68,1.97,0,.62-.2,1.09-.61,1.43-.4.34-.97.51-1.71.51h-.53Z"/>
        <path class="af" d="m262.12,519.93c-.54,0-.98-.16-1.31-.47-.33-.32-.49-.74-.49-1.27v-3.88h-1.9v-.98h1.9v-1.86h1.08v1.86h2.7v.98h-2.7v3.88c0,.22.07.41.2.55.13.14.31.21.52.21h1.92v.98h-1.92Z"/>
        <path class="af" d="m268.66,520.05c-.78,0-1.4-.23-1.88-.7-.48-.47-.71-1.11-.71-1.94v-1.56c0-.82.24-1.47.71-1.94.48-.47,1.1-.7,1.88-.7.52,0,.97.1,1.36.31s.69.5.91.88c.22.38.32.82.32,1.33v1.18h-4.13v.62c0,.49.14.87.42,1.16.28.28.65.43,1.12.43.4,0,.73-.08.99-.23.26-.16.42-.37.47-.63h1.08c-.07.55-.34.99-.8,1.31s-1.04.49-1.74.49Zm-1.54-3.98h3.07v-.34c0-.52-.13-.92-.4-1.21-.27-.29-.65-.43-1.13-.43s-.87.14-1.13.43c-.27.28-.4.69-.4,1.21v.34Z"/>
        <path class="af" d="m272.98,519.93v-6.6h.94v.88h.02c.04-.3.16-.54.35-.72.2-.18.45-.28.75-.28.29,0,.53.08.73.25.2.17.34.4.43.68h.01c.06-.29.18-.52.38-.68.2-.17.45-.25.75-.25.42,0,.76.16,1.01.47.25.32.38.73.38,1.23v5.02h-1.01v-5.03c0-.26-.06-.47-.19-.63-.13-.16-.3-.23-.53-.23s-.39.08-.52.23c-.13.15-.19.36-.19.62v5.04h-.89v-5.03c0-.26-.06-.47-.19-.63-.13-.16-.3-.23-.52-.23s-.4.08-.53.23c-.13.15-.19.36-.19.62v5.04h-1.01Z"/>
      </g>
      <g class="av">
        <rect class="ad" x="172.33" y="609.53" width="135.06" height="33.59" rx="4.25" ry="4.25"/>
      </g>
      <g>
        <path class="af" d="m185.95,630.84c-.8,0-1.43-.22-1.9-.67s-.7-1.06-.7-1.85v-3.96c0-.79.23-1.4.7-1.85s1.1-.67,1.9-.67,1.41.23,1.87.68.7,1.07.7,1.84h-1.08c0-.5-.13-.88-.39-1.15s-.63-.4-1.1-.4-.84.13-1.11.4-.4.65-.4,1.15v3.96c0,.5.13.88.4,1.15s.64.4,1.11.4.84-.13,1.1-.4.39-.65.39-1.15h1.08c0,.78-.23,1.39-.7,1.84-.46.45-1.09.68-1.87.68Z"/>
        <path class="af" d="m193.06,630.81c-.79,0-1.42-.23-1.89-.7-.47-.46-.7-1.11-.7-1.94v-1.51c0-.84.23-1.49.7-1.95.46-.46,1.1-.69,1.9-.69s1.43.23,1.9.69c.46.46.7,1.11.7,1.95v1.51c0,.83-.23,1.48-.7,1.94-.47.46-1.1.7-1.89.7Zm0-.96c.47,0,.84-.13,1.11-.4s.4-.65.4-1.16v-1.75c0-.51-.13-.9-.4-1.16s-.64-.4-1.11-.4-.83.13-1.1.4-.41.65-.41,1.16v1.75c0,.51.14.9.41,1.16s.64.4,1.1.4Z"/>
        <path class="af" d="m201.22,630.72c-.58,0-1.05-.17-1.4-.51-.35-.34-.52-.79-.52-1.35v-5.92h-2.28v-.98h3.36v6.9c0,.27.08.49.23.64.15.16.36.23.61.23h2.04v.98h-2.04Z"/>
        <path class="af" d="m208.42,630.72c-.58,0-1.05-.17-1.4-.51-.35-.34-.52-.79-.52-1.35v-5.92h-2.28v-.98h3.36v6.9c0,.27.08.49.23.64.15.16.36.23.61.23h2.04v.98h-2.04Z"/>
        <path class="af" d="m212.08,630.72v-.98h2.34v-4.63h-2.1v-.98h3.18v5.62h2.22v.98h-5.64Zm2.76-7.79c-.26,0-.47-.07-.62-.2-.15-.14-.23-.32-.23-.55s.08-.43.23-.57c.15-.14.36-.21.62-.21s.47.07.62.21c.15.14.23.33.23.57s-.08.42-.23.55c-.15.14-.36.2-.62.2Z"/>
        <path class="af" d="m221.59,630.81c-.74,0-1.31-.17-1.71-.5s-.61-.8-.61-1.41h1.08c0,.3.11.54.32.71.22.17.52.26.91.26h.53c.4,0,.71-.09.93-.26s.33-.42.33-.74c0-.57-.26-.89-.78-.96l-1.82-.26c-.45-.06-.8-.25-1.04-.56-.25-.31-.37-.71-.37-1.22,0-.58.2-1.03.59-1.36.4-.33.94-.49,1.64-.49h.53c.64,0,1.16.16,1.57.47.4.32.62.73.65,1.24h-1.09c-.02-.23-.13-.42-.33-.58-.2-.15-.47-.23-.8-.23h-.53c-.37,0-.66.08-.86.25-.21.17-.31.4-.31.68,0,.46.21.73.64.79l1.7.24c1.12.16,1.68.82,1.68,1.97,0,.62-.2,1.09-.61,1.43-.4.34-.97.51-1.71.51h-.53Z"/>
        <path class="af" d="m226.48,630.72v-.98h2.34v-4.63h-2.1v-.98h3.18v5.62h2.22v.98h-5.64Zm2.76-7.79c-.26,0-.47-.07-.62-.2-.15-.14-.23-.32-.23-.55s.08-.43.23-.57c.15-.14.36-.21.62-.21s.47.07.62.21c.15.14.23.33.23.57s-.08.42-.23.55c-.15.14-.36.2-.62.2Z"/>
        <path class="af" d="m236.26,630.81c-.79,0-1.42-.23-1.89-.7-.47-.46-.7-1.11-.7-1.94v-1.51c0-.84.23-1.49.7-1.95.46-.46,1.1-.69,1.9-.69s1.43.23,1.9.69c.46.46.7,1.11.7,1.95v1.51c0,.83-.23,1.48-.7,1.94-.47.46-1.1.7-1.89.7Zm0-.96c.47,0,.84-.13,1.11-.4s.4-.65.4-1.16v-1.75c0-.51-.13-.9-.4-1.16s-.64-.4-1.11-.4-.83.13-1.1.4-.41.65-.41,1.16v1.75c0,.51.14.9.41,1.16s.64.4,1.1.4Z"/>
        <path class="af" d="m240.96,630.72v-6.6h1.08v1.26h.01c.06-.44.24-.78.54-1.02.3-.24.71-.36,1.21-.36.66,0,1.19.21,1.58.61.39.41.59.96.59,1.67v4.44h-1.08v-4.25c0-.5-.13-.89-.38-1.16-.25-.27-.59-.4-1.03-.4s-.8.14-1.06.42c-.26.28-.39.68-.39,1.19v4.2h-1.08Z"/>
        <path class="af" d="m257.91,630.84c-.85,0-1.52-.22-2.03-.67s-.76-1.06-.76-1.85h1.08c0,.49.16.87.47,1.15s.72.41,1.24.41.89-.14,1.19-.43c.3-.29.44-.66.44-1.13,0-.35-.09-.66-.28-.92s-.46-.44-.81-.53l-1.33-.37c-.55-.16-.99-.45-1.3-.86-.32-.41-.47-.9-.47-1.46,0-.46.1-.87.31-1.22s.5-.63.88-.82c.38-.2.81-.29,1.3-.29s.93.1,1.31.29c.38.2.68.47.89.82.22.35.32.75.32,1.21h-1.08c0-.4-.14-.73-.41-.98s-.62-.38-1.04-.38-.77.13-1.03.38c-.26.25-.4.58-.4.98,0,.32.09.59.26.82.17.23.41.39.73.47l1.37.38c.58.16,1.04.46,1.36.91.32.44.49.97.49,1.58,0,.77-.24,1.38-.73,1.84-.49.46-1.14.68-1.96.68Z"/>
        <path class="af" d="m263.59,632.88l.97-2.57-2.46-6.19h1.16l1.56,4.08c.06.16.12.33.18.5.06.18.1.33.12.46.02-.13.06-.28.12-.46.06-.18.11-.34.17-.5l1.45-4.08h1.14l-3.29,8.76h-1.13Z"/>
        <path class="af" d="m271.99,630.81c-.74,0-1.31-.17-1.71-.5s-.61-.8-.61-1.41h1.08c0,.3.11.54.32.71.22.17.52.26.91.26h.53c.4,0,.71-.09.93-.26s.33-.42.33-.74c0-.57-.26-.89-.78-.96l-1.82-.26c-.45-.06-.8-.25-1.04-.56-.25-.31-.37-.71-.37-1.22,0-.58.2-1.03.59-1.36.4-.33.94-.49,1.64-.49h.53c.64,0,1.16.16,1.57.47.4.32.62.73.65,1.24h-1.09c-.02-.23-.13-.42-.33-.58-.2-.15-.47-.23-.8-.23h-.53c-.37,0-.66.08-.86.25-.21.17-.31.4-.31.68,0,.46.21.73.64.79l1.7.24c1.12.16,1.68.82,1.68,1.97,0,.62-.2,1.09-.61,1.43-.4.34-.97.51-1.71.51h-.53Z"/>
        <path class="af" d="m280.12,630.72c-.54,0-.98-.16-1.31-.47-.33-.32-.49-.74-.49-1.27v-3.88h-1.9v-.98h1.9v-1.86h1.08v1.86h2.7v.98h-2.7v3.88c0,.22.07.41.2.55.13.14.31.21.52.21h1.92v.98h-1.92Z"/>
        <path class="af" d="m286.66,630.84c-.78,0-1.4-.23-1.88-.7-.48-.47-.71-1.11-.71-1.94v-1.56c0-.82.24-1.47.71-1.94.48-.47,1.1-.7,1.88-.7.52,0,.97.11,1.36.31.39.21.69.5.91.88.22.38.32.82.32,1.33v1.18h-4.13v.62c0,.49.14.88.42,1.16.28.28.65.43,1.12.43.4,0,.73-.08.99-.23.26-.16.42-.37.47-.63h1.08c-.07.55-.34.99-.8,1.31-.46.32-1.04.49-1.74.49Zm-1.54-3.98h3.07v-.34c0-.52-.13-.92-.4-1.21-.27-.28-.65-.43-1.13-.43s-.87.14-1.13.43c-.27.28-.4.69-.4,1.21v.34Z"/>
        <path class="af" d="m290.98,630.72v-6.6h.94v.88h.02c.04-.29.16-.54.35-.72.2-.18.45-.28.75-.28.29,0,.53.08.73.25.2.17.34.4.43.68h.01c.06-.29.18-.52.38-.68.2-.17.45-.25.75-.25.42,0,.76.16,1.01.47s.38.73.38,1.23v5.02h-1.01v-5.03c0-.26-.06-.47-.19-.63s-.3-.23-.53-.23-.39.08-.52.23-.19.36-.19.62v5.04h-.89v-5.03c0-.26-.06-.47-.19-.63s-.3-.23-.52-.23-.4.08-.53.23-.19.36-.19.62v5.04h-1.01Z"/>
      </g>
    </g>
  </g>
</svg>